# xmcd
# Track frame offsets:
# 150
# 18315
# 40893
# 64402
#
# Disc length: 1172 seconds
# Revision: 3
# Processed by: cddbd v1.5.2PL0 Copyright (c) Steve Scherf et al.
# Submitted via: VisiTrax 2.11.3.279 - For more info visit www.synapsa.com
#
DISCID=2f049204
DTITLE=De La Soul Feat. Chaka Khan - All Good? (MCD)
DYEAR=2000
DGENRE=Soul
TTITLE0=All Good? (Radio Edit)
TTITLE1=All Good? (Album Version)
TTITLE2=All Good? (MJ Cole Remix)
TTITLE3=All Good? (MJ Cole Instrumental)
EXTD=
EXTT0=
EXTT1=
EXTT2=
EXTT3=
PLAYORDER=
